<?xml version="1.0" encoding="UTF-8"?>
<!DOCTYPE svg PUBLIC "-//W3C//DTD SVG 1.1//EN" "http://www.w3.org/Graphics/SVG/1.1/DTD/svg11.dtd">
<!-- Creator: CorelDRAW 2019 (64-Bit) -->
<svg xmlns="http://www.w3.org/2000/svg" xml:space="preserve" width="171.45mm" height="80.2218mm" version="1.1" style="shape-rendering:geometricPrecision; text-rendering:geometricPrecision; image-rendering:optimizeQuality; fill-rule:evenodd; clip-rule:evenodd"
viewBox="0 0 20289.46 9493.47"
 xmlns:xlink="http://www.w3.org/1999/xlink"
 xmlns:xodm="http://www.corel.com/coreldraw/odm/2003">
 <defs>
  <style type="text/css">
   <![CDATA[
    .str0 {stroke:#2B2A29;stroke-width:23.67;stroke-miterlimit:22.9256}
    .fil4 {fill:none}
    .fil0 {fill:#2B2A29}
    .fil1 {fill:black}
    .fil2 {fill:#2B2A29;fill-rule:nonzero}
    .fil3 {fill:#2B2A29;fill-rule:nonzero}
   ]]>
  </style>
 </defs>
 <g id="Capa_x0020_1">
  <metadata id="CorelCorpID_0Corel-Layer"/>
  <circle class="fil0" cx="3366.71" cy="2116.33" r="411.48"/>
  <path class="fil0" d="M3366.7 1373.56l0.01 0c28.39,0 51.62,23.22 51.62,51.61l0 172.42c-16.18,-4.14 -33.55,-6.4 -51.62,-6.4 -18.07,0 -35.44,2.26 -51.62,6.4l0 -172.42c0,-28.39 23.22,-51.61 51.61,-51.61z"/>
  <path class="fil0" d="M2995.32 1473.08l0 0c24.59,-14.2 56.32,-5.7 70.52,18.89l86.21 149.32c-16.09,4.5 -32.26,11.22 -47.9,20.26 -15.66,9.04 -29.57,19.68 -41.51,31.36l-86.21 -149.32c-14.19,-24.59 -5.69,-56.31 18.9,-70.51z"/>
  <path class="fil0" d="M2723.45 1744.95l0.01 -0.01c14.19,-24.59 45.92,-33.09 70.51,-18.89l149.32 86.21c-11.68,11.93 -22.32,25.85 -31.36,41.49 -9.04,15.66 -15.76,31.83 -20.26,47.92l-149.32 -86.21c-24.59,-14.2 -33.09,-45.92 -18.9,-70.51z"/>
  <path class="fil0" d="M2623.95 2116.34l0 -0.01c0,-28.39 23.22,-51.62 51.61,-51.62l172.42 0c-4.14,16.18 -6.4,33.55 -6.4,51.62 0,18.07 2.26,35.44 6.4,51.62l-172.42 0c-28.39,0 -51.61,-23.22 -51.61,-51.61z"/>
  <path class="fil0" d="M2723.46 2487.71l0 0c-14.2,-24.59 -5.7,-56.32 18.89,-70.52l149.32 -86.21c4.5,16.09 11.22,32.26 20.26,47.9 9.04,15.66 19.68,29.57 31.36,41.51l-149.32 86.21c-24.59,14.19 -56.31,5.69 -70.51,-18.9z"/>
  <path class="fil0" d="M2995.33 2759.59l-0.01 -0.01c-24.59,-14.19 -33.09,-45.92 -18.89,-70.51l86.21 -149.32c11.93,11.68 25.85,22.32 41.5,31.36 15.64,9.04 31.82,15.76 47.9,20.26l-86.21 149.32c-14.2,24.59 -45.92,33.09 -70.51,18.9z"/>
  <path class="fil0" d="M3366.72 2859.09l-0.01 0c-28.39,0 -51.62,-23.22 -51.62,-51.61l0 -172.42c16.18,4.14 33.55,6.4 51.62,6.4 18.07,0 35.44,-2.26 51.62,-6.4l0 172.42c0,28.39 -23.22,51.61 -51.61,51.61z"/>
  <path class="fil0" d="M3738.1 2759.58l0 0c-24.59,14.2 -56.32,5.7 -70.52,-18.89l-86.21 -149.32c16.09,-4.5 32.26,-11.22 47.9,-20.26 15.66,-9.04 29.57,-19.68 41.51,-31.36l86.21 149.32c14.19,24.59 5.69,56.31 -18.9,70.51z"/>
  <path class="fil0" d="M4009.97 2487.7l-0.01 0.01c-14.19,24.59 -45.92,33.09 -70.51,18.89l-149.32 -86.21c11.68,-11.93 22.32,-25.85 31.36,-41.5 9.04,-15.64 15.76,-31.82 20.26,-47.9l149.32 86.21c24.59,14.2 33.09,45.92 18.9,70.51z"/>
  <path class="fil0" d="M4109.47 2116.31l0 0.01c0,28.39 -23.22,51.62 -51.61,51.62l-172.42 0c4.14,-16.18 6.4,-33.55 6.4,-51.62 0,-18.07 -2.26,-35.44 -6.4,-51.62l172.42 0c28.39,0 51.61,23.22 51.61,51.61z"/>
  <path class="fil0" d="M4009.96 1744.94l0 0c14.2,24.59 5.7,56.32 -18.89,70.52l-149.32 86.21c-4.5,-16.09 -11.22,-32.26 -20.26,-47.9 -9.04,-15.66 -19.68,-29.57 -31.36,-41.51l149.32 -86.21c24.59,-14.19 56.31,-5.69 70.51,18.9z"/>
  <path class="fil0" d="M3738.09 1473.06l0.01 0.01c24.59,14.19 33.09,45.92 18.89,70.51l-86.21 149.32c-11.93,-11.68 -25.85,-22.32 -41.49,-31.36 -15.66,-9.04 -31.83,-15.76 -47.92,-20.26l86.21 -149.32c14.2,-24.59 45.92,-33.09 70.51,-18.9z"/>
  <path class="fil0" d="M6933.62 1659.2c-196.54,0 -375.2,100.14 -507.89,263.52 -71.61,-40.59 -150.58,-63.13 -233.58,-63.13 -173.82,0 -330.02,98.68 -437.73,255.56 -46.79,-23.49 -97.57,-36.39 -150.67,-36.39 -232.49,0 -420.97,246.73 -420.97,551.08l2492.32 0c0,-536.06 -331.97,-970.63 -741.47,-970.63z"/>
  <rect class="fil0 str0" x="9224.24" y="2017.82" width="1366.65" height="209.01" rx="104.51" ry="104.51"/>
  <rect class="fil0 str0" x="8510.22" y="2321.66" width="1366.65" height="209.01" rx="104.51" ry="104.51"/>
  <rect class="fil0 str0" x="12292.71" y="2020.03" width="1366.65" height="209.01" rx="104.51" ry="104.51"/>
  <rect class="fil0 str0" x="11578.68" y="2323.87" width="1366.65" height="209.01" rx="104.51" ry="104.51"/>
  <rect class="fil0 str0" x="11815.36" y="1732.17" width="1366.65" height="209.01" rx="104.51" ry="104.51"/>
  <path class="fil0" d="M17368.45 1318.13c227.25,0 411.48,184.23 411.48,411.48 0,227.25 -184.23,411.48 -411.48,411.48 -227.25,0 -411.48,-184.23 -411.48,-411.48 0,-227.25 184.23,-411.48 411.48,-411.48zm-0.01 -331.28l0.01 0c28.39,0 51.62,23.22 51.62,51.61l0 172.42c-16.18,-4.14 -33.55,-6.4 -51.62,-6.4 -18.07,0 -35.44,2.26 -51.62,6.4l0 -172.42c0,-28.39 23.22,-51.61 51.61,-51.61zm-371.38 99.51l0 0c24.59,-14.2 56.32,-5.7 70.52,18.89l86.21 149.32c-16.09,4.5 -32.26,11.22 -47.9,20.26 -15.66,9.04 -29.57,19.68 -41.51,31.36l-86.21 -149.32c-14.19,-24.59 -5.69,-56.31 18.9,-70.51zm-271.87 271.87l0.01 -0.01c14.19,-24.59 45.92,-33.09 70.51,-18.89l149.32 86.21c-11.68,11.93 -22.32,25.85 -31.36,41.49 -9.04,15.66 -15.76,31.83 -20.26,47.92l-149.32 -86.21c-24.59,-14.2 -33.09,-45.92 -18.9,-70.51zm-99.5 371.39l0 -0.01c0,-28.39 23.22,-51.62 51.61,-51.62l172.42 0c-4.14,16.18 -6.4,33.55 -6.4,51.62 0,18.07 2.26,35.44 6.4,51.62l-172.42 0c-28.39,0 -51.61,-23.22 -51.61,-51.61zm99.51 371.38l0 0c-14.2,-24.59 -5.7,-56.32 18.89,-70.52l149.32 -86.21c4.5,16.09 11.22,32.26 20.26,47.9 9.04,15.66 19.68,29.57 31.36,41.51l-149.32 86.21c-24.59,14.19 -56.31,5.69 -70.51,-18.9zm271.87 271.87l-0.01 -0.01c-24.59,-14.19 -33.09,-45.92 -18.89,-70.51l86.21 -149.32c11.93,11.68 25.85,22.32 41.5,31.36 15.64,9.04 31.82,15.76 47.9,20.26l-86.21 149.32c-14.2,24.59 -45.92,33.09 -70.51,18.9zm371.39 99.5l-0.01 0c-28.39,0 -51.62,-23.22 -51.62,-51.61l0 -172.42c16.18,4.14 33.55,6.4 51.62,6.4 18.07,0 35.44,-2.26 51.62,-6.4l0 172.42c0,28.39 -23.22,51.61 -51.61,51.61zm371.38 -99.51l0 0c-24.59,14.2 -56.32,5.7 -70.52,-18.89l-86.21 -149.32c16.09,-4.5 32.26,-11.22 47.9,-20.26 15.66,-9.04 29.57,-19.68 41.51,-31.36l86.21 149.32c14.19,24.59 5.69,56.31 -18.9,70.51zm271.87 -271.87l-0.01 0.01c-14.19,24.59 -45.92,33.09 -70.51,18.89l-149.32 -86.21c11.68,-11.93 22.32,-25.85 31.36,-41.5 9.04,-15.64 15.76,-31.82 20.26,-47.9l149.32 86.21c24.59,14.2 33.09,45.92 18.9,70.51zm99.5 -371.39l0 0.01c0,28.39 -23.22,51.62 -51.61,51.62l-172.42 0c4.14,-16.18 6.4,-33.55 6.4,-51.62 0,-18.07 -2.26,-35.44 -6.4,-51.62l172.42 0c28.39,0 51.61,23.22 51.61,51.61zm-99.51 -371.38l0 0c14.2,24.59 5.7,56.32 -18.89,70.52l-149.32 86.21c-4.5,-16.09 -11.22,-32.26 -20.26,-47.9 -9.04,-15.66 -19.68,-29.57 -31.36,-41.51l149.32 -86.21c24.59,-14.19 56.31,-5.69 70.51,18.9zm-271.87 -271.87l0.01 0.01c24.59,14.19 33.09,45.92 18.89,70.51l-86.21 149.32c-11.93,-11.68 -25.85,-22.32 -41.49,-31.36 -15.66,-9.04 -31.83,-15.76 -47.92,-20.26l86.21 -149.32c14.2,-24.59 45.92,-33.09 70.51,-18.9z"/>
  <path class="fil0" d="M16877.11 1631.32c-196.54,0 -375.2,100.14 -507.89,263.52 -71.61,-40.59 -150.58,-63.13 -233.58,-63.13 -173.82,0 -330.02,98.68 -437.73,255.56 -46.79,-23.49 -97.57,-36.39 -150.67,-36.39 -232.49,0 -420.97,246.73 -420.97,551.08l2492.32 0c0,-536.06 -331.97,-970.63 -741.47,-970.63z"/>
  <path class="fil0" d="M7934.89 4048.21c-196.54,0 -375.2,100.14 -507.89,263.52 -71.61,-40.59 -150.58,-63.13 -233.58,-63.13 -173.82,0 -330.02,98.68 -437.73,255.56 -46.79,-23.49 -97.57,-36.39 -150.67,-36.39 -232.49,0 -420.97,246.73 -420.97,551.08l2492.32 0c0,-536.06 -331.97,-970.63 -741.47,-970.63z"/>
  <rect class="fil0 str0" transform="matrix(2.06244E-14 0.581412 0.778733 -1.53984E-14 6825.06 5290.82)" width="1064.57" height="162.81" rx="81.41" ry="81.41"/>
  <rect class="fil0 str0" transform="matrix(2.06244E-14 0.581412 0.778733 -1.53984E-14 7240.21 5144.15)" width="1064.57" height="162.81" rx="81.41" ry="81.41"/>
  <rect class="fil0 str0" transform="matrix(2.06244E-14 0.581412 0.778733 -1.53984E-14 6409.89 5162.98)" width="1064.57" height="162.81" rx="81.41" ry="81.41"/>
  <rect class="fil0 str0" transform="matrix(2.06244E-14 0.581412 0.778733 -1.53984E-14 7655.38 5290.82)" width="1064.57" height="162.81" rx="81.41" ry="81.41"/>
  <rect class="fil0 str0" transform="matrix(2.06244E-14 0.581412 0.778733 -1.53984E-14 8070.56 5144.15)" width="1064.57" height="162.81" rx="81.41" ry="81.41"/>
  <path class="fil0" d="M13146.95 4320.22c-196.54,0 -375.2,100.14 -507.89,263.52 -71.61,-40.59 -150.58,-63.13 -233.58,-63.13 -173.82,0 -330.02,98.68 -437.73,255.56 -46.79,-23.49 -97.57,-36.39 -150.67,-36.39 -232.49,0 -420.97,246.73 -420.97,551.08l2492.32 0c0,-536.06 -331.97,-970.63 -741.47,-970.63zm-1997.9 -277.19c98.27,0 187.6,50.07 253.95,131.76 35.81,-20.3 75.29,-31.57 116.79,-31.57 86.91,0 165,49.35 218.86,127.78 23.4,-11.75 48.79,-18.2 75.34,-18.2 116.26,0 210.49,123.37 210.49,275.54l-1246.16 0c0,-268.03 165.98,-485.31 370.74,-485.31z"/>
  <path class="fil0" d="M3951.25 6921.86c-196.54,0 -375.2,100.14 -507.89,263.52 -71.61,-40.59 -150.58,-63.13 -233.58,-63.13 -173.82,0 -330.02,98.68 -437.73,255.56 -46.79,-23.49 -97.57,-36.39 -150.67,-36.39 -232.49,0 -420.97,246.73 -420.97,551.08l574.65 0 -33.5 70.03 26.15 8.65 -71.49 128.36 26.15 8.66 -71.5 128.36 198.81 -162.26 -26.17 -8.65 123.82 -111.05 -26.15 -8.66 43.61 -53.45 482.45 0 -75.15 86.57 26.17 8.65 -94.18 196.88 26.15 8.65 -71.49 128.36 26.15 8.66 -71.5 128.36 198.81 -162.26 -26.17 -8.65 123.82 -111.05 -26.15 -8.66 146.48 -179.57 -26.15 -8.65 71.22 -87.3 520.5 0 -64.14 134.1 26.15 8.65 -71.49 128.36 26.15 8.66 -71.5 128.36 198.81 -162.26 -26.17 -8.65 123.82 -111.05 -26.15 -8.66 95.87 -117.52 285.61 0c0,-536.06 -331.97,-970.63 -741.47,-970.63z"/>
  <rect class="fil0 str0" transform="matrix(1.81535E-14 0.511756 0.685437 -1.35536E-14 3059.48 8212.84)" width="1064.57" height="162.81" rx="81.41" ry="81.41"/>
  <rect class="fil0 str0" transform="matrix(1.81535E-14 0.511756 0.685437 -1.35536E-14 4298.08 8138.76)" width="1064.57" height="162.81" rx="81.41" ry="81.41"/>
  <rect class="fil0 str0" transform="matrix(1.81535E-14 0.511756 0.685437 -1.35536E-14 2440.19 8044.52)" width="1064.57" height="162.81" rx="81.41" ry="81.41"/>
  <rect class="fil0 str0" transform="matrix(1.81535E-14 0.511756 0.685437 -1.35536E-14 3678.78 8066.24)" width="1064.57" height="162.81" rx="81.41" ry="81.41"/>
  <path class="fil0" d="M17030.61 3952.87c-196.54,0 -375.2,100.14 -507.89,263.52 -71.61,-40.59 -150.58,-63.13 -233.58,-63.13 -173.82,0 -330.02,98.68 -437.73,255.56 -46.79,-23.49 -97.57,-36.39 -150.67,-36.39 -232.49,0 -420.97,246.73 -420.97,551.08l574.65 0 -33.5 70.03 26.15 8.65 -71.49 128.36 26.15 8.66 -71.5 128.36 198.81 -162.26 -26.17 -8.65 123.82 -111.05 -26.15 -8.66 43.61 -53.45 482.45 0 -75.15 86.57 26.17 8.65 -94.18 196.88 26.15 8.65 -71.49 128.36 26.15 8.66 -71.5 128.36 198.81 -162.26 -26.17 -8.65 123.82 -111.05 -26.15 -8.66 146.48 -179.57 -26.15 -8.65 71.22 -87.3 520.5 0 -64.14 134.1 26.15 8.65 -71.49 128.36 26.15 8.66 -71.5 128.36 198.81 -162.26 -26.17 -8.65 123.82 -111.05 -26.15 -8.66 95.87 -117.52 285.61 0c0,-536.06 -331.97,-970.63 -741.47,-970.63z"/>
  <path class="fil0" d="M7171.65 6657.29c-196.54,0 -375.2,100.14 -507.89,263.52 -71.61,-40.59 -150.58,-63.13 -233.58,-63.13 -173.82,0 -330.02,98.68 -437.73,255.56 -46.79,-23.49 -97.57,-36.39 -150.67,-36.39 -232.49,0 -420.97,246.73 -420.97,551.08l2492.32 0c0,-536.06 -331.97,-970.63 -741.47,-970.63zm-849.26 1475.56c76.08,0 137.76,61.68 137.76,137.76 0,76.08 -61.68,137.76 -137.76,137.76 -76.08,0 -137.76,-61.68 -137.76,-137.76 0,-76.08 61.68,-137.76 137.76,-137.76zm769.21 0c76.08,0 137.76,61.68 137.76,137.76 0,76.08 -61.68,137.76 -137.76,137.76 -76.08,0 -137.76,-61.68 -137.76,-137.76 0,-76.08 61.68,-137.76 137.76,-137.76zm384.61 -355.02c76.08,0 137.76,61.68 137.76,137.76 0,76.08 -61.68,137.76 -137.76,137.76 -76.08,0 -137.76,-61.68 -137.76,-137.76 0,-76.08 61.68,-137.76 137.76,-137.76zm-769.21 0c76.08,0 137.76,61.68 137.76,137.76 0,76.08 -61.68,137.76 -137.76,137.76 -76.08,0 -137.76,-61.68 -137.76,-137.76 0,-76.08 61.68,-137.76 137.76,-137.76zm-769.21 0c76.08,0 137.76,61.68 137.76,137.76 0,76.08 -61.68,137.76 -137.76,137.76 -76.08,0 -137.76,-61.68 -137.76,-137.76 0,-76.08 61.68,-137.76 137.76,-137.76z"/>
  <g id="_1996136861184">
   <path class="fil0" d="M10888.69 6540.87c-196.54,0 -375.2,100.14 -507.89,263.52 -71.61,-40.59 -150.58,-63.13 -233.58,-63.13 -173.82,0 -330.02,98.68 -437.73,255.56 -46.79,-23.49 -97.57,-36.39 -150.67,-36.39 -232.49,0 -420.97,246.73 -420.97,551.08l2492.32 0c0,-536.06 -331.97,-970.63 -741.47,-970.63z"/>
   <path class="fil1" d="M9546.06 7720.46c-0.25,-3.51 -0.78,-4.96 -3.03,-6.88 -0.45,-0.38 -2.65,-2.09 -3.04,-2.37 -1.46,-1.05 -0.59,-1.56 -2.93,-1.56 -6.56,0 -11.8,-0.89 -16.21,5.4 -5.57,7.92 -1.59,24.66 -3.6,33.32 -3.78,-2.52 -7.01,-6.3 -10.13,-9.68 -13.1,-14.18 -26.8,-4.37 -26.8,3.37 0,10.21 0.92,11.04 7.87,18.26l22.31 22.72c2.04,2.06 5.49,3.88 6.92,6.59 1.56,2.97 1.63,66.9 1.63,76.72 -7.02,1.63 -12.25,6.95 -18.01,10.8 -5.49,-2.63 -64.51,-36.67 -67.55,-36.92 0,-2.86 -11.63,-46.59 -14.19,-50.66 -3.12,-4.98 -8.54,-6.98 -14.64,-6.98 -4.02,0 -10.8,6 -10.8,10.8 0,15.99 3.61,14.44 3.61,24.32 -4.13,-0.34 -4.11,-1.46 -7.61,-3.21 -2.91,-1.46 -1.04,-0.38 -3.46,-1.95l-6.82 -3.98c-6.93,-4.73 -12.01,-5.36 -19.54,-1.27 -4.09,2.22 -5.68,8.83 -4.92,13.01 1.95,10.62 7.16,9.96 15.41,15.33l6.14 3.76c1.73,0.97 1.41,1.12 3.24,2.15 0.96,0.54 2.22,0.93 3.14,1.37 -4.22,5.76 -12.47,4.05 -18.35,6.86 -5.93,2.83 -10.46,4.71 -10.46,14.76 0,3.96 -0.14,-0.32 1.05,2.53 2.57,6.11 2.96,8.45 11.02,9.77 6.14,1.01 14.73,-2.26 19.87,-3.78 3.57,-1.05 7.31,-1.08 10.51,-2.12 8.63,-2.82 10.2,-2.06 14.64,-3.36 11.99,-3.5 4.72,-5.36 20.85,3.66 8.99,5.08 50.44,30.28 53.55,31.11 -0.44,5.33 -0.24,20.98 -2.17,23.02 -2.64,2.78 -38.58,22.64 -46.66,27.23 -10.73,5.56 -16.09,12.65 -30.4,6.46l-25.3 -6.22c-4.45,-0.8 -10.17,-5.69 -18.18,-1.17 -5.25,2.96 -6.98,4.97 -6.98,11.93 0,13.36 15.55,17.76 27.02,18.01 -3.48,6.57 -0.84,2.85 -7.17,6.34 -9.14,5.42 -30.89,18.63 -15.69,30.92 9.51,7.7 19.59,0.02 28.06,-5.04 18.63,-11.09 5.61,6.13 5.61,16.41 0,5.3 1.5,7.85 4.56,10.76 6.85,6.5 19.42,4.56 22.74,-5.08 3.16,-9.15 7.95,-29.98 10.07,-34.96 1.85,-4.34 4.54,-11.14 10.99,-15.01 25.18,-15.15 53.17,-40.06 70.92,-29.08 4.37,2.31 5.51,1.63 5.91,7.61 1.01,15.33 2.3,47.02 0.49,61.8 -0.62,5.01 1.41,6.5 -1.54,11.01 -12.24,13.09 -45.21,36.48 -32.59,52.7 9.81,12.59 23.4,-1.87 30.41,-9.85 1.89,-1.48 -0.65,-0.95 3.23,-1.27 0,6.21 1.79,30.03 4.09,32.83 4.4,5.3 14.7,6.57 19.9,1.98 10.64,-9.41 1.66,-39.71 8.59,-34.31 7.87,6.13 9.73,14.8 21.44,14.8 4.76,0 7.44,-0.99 10.24,-4.17 13.7,-15.55 -19.8,-39.32 -28.6,-48.61 -2.9,-2.95 -5.47,-4.37 -6.41,-8.97 -1.89,-9.21 -0.39,-49.53 -0.44,-60.73 -0.05,-12.93 10.99,-23.7 20.51,-21.55 7.36,1.67 41.93,23.41 50.87,28.52 1.79,1.18 -0.11,0.13 1.63,1.08 10.91,5.95 12.18,3.87 13.34,11.88 0.91,6.31 8.83,32.03 11.28,39.16 2.02,9.55 11.19,15.96 20.28,11.09l1.17 -0.63c13.18,-7.33 2.5,-22.15 2.5,-33.53 2.51,0.67 3.29,1.67 6.06,2.95 11.4,5.24 18.9,15.19 30.31,8.2 6.51,-3.98 8.33,-15.92 2.07,-21.66l-25.82 -15.61c12.25,-1.02 34.4,-7.27 29.21,-23.77 -1.16,-3.68 -1.09,-3.31 -3.38,-5.64 -7.05,-7.17 -21.3,-0.88 -25.43,0.09 -10.8,2.53 -33.02,11.6 -41.69,5.79 -15.96,-10.7 -58.67,-20.91 -58.67,-44.91 0,-11.43 -4.34,-10.43 10.57,-18.25 1.18,-0.62 1.34,-0.53 2.45,-1.15l46.12 -26.84c1.62,-1.12 1.5,-2.39 3.91,-2.39 11.15,0 50.84,13.4 56.79,10.89 1.04,-0.44 5.6,-3.62 6.44,-4.41 3.74,-3.56 4.7,-16.66 -3.87,-21.69l-21.53 -5.5c5.48,-7.48 27.92,-13.37 27.92,-23.42 0,-6.17 0.63,-9.68 -4.46,-13.55 -15.83,-12.02 -34.8,14.95 -37.44,9.55 -2.19,-4.51 4.08,-15.61 4.08,-20.31 0,-9.94 -10.89,-18.95 -20.05,-13.74 -5.54,3.16 -6.13,3.81 -7.87,10.14 -4.08,14.83 -9.1,30.18 -13.29,45.25 -1.49,2.8 -3.02,3.95 -6.09,5.61l-52.03 29.93c-2.98,1.93 -4.77,1.8 -7.85,3.86 -3.56,-2.39 -17.66,-10.88 -18.41,-13.1 -4.5,-13.16 -5.16,-69.69 8.06,-82.81 8.44,-8.54 34.86,-28.89 27.66,-42.96 -12.13,-15.31 -20.82,-3.55 -31.36,6.89 -6.32,6.26 -5.75,-1.96 -5.75,-6.71l0 -18.01z"/>
   <path class="fil1" d="M11347.99 7720.45c-0.25,-3.51 -0.78,-4.96 -3.03,-6.88 -0.45,-0.38 -2.65,-2.09 -3.04,-2.37 -1.46,-1.05 -0.59,-1.56 -2.93,-1.56 -6.56,0 -11.8,-0.89 -16.21,5.4 -5.57,7.92 -1.59,24.66 -3.6,33.32 -3.78,-2.52 -7.01,-6.3 -10.13,-9.68 -13.1,-14.18 -26.8,-4.37 -26.8,3.37 0,10.21 0.92,11.04 7.87,18.26l22.31 22.72c2.04,2.06 5.49,3.88 6.92,6.59 1.56,2.97 1.63,66.9 1.63,76.72 -7.02,1.63 -12.25,6.95 -18.01,10.8 -5.49,-2.63 -64.51,-36.67 -67.55,-36.92 0,-2.86 -11.63,-46.59 -14.19,-50.66 -3.12,-4.98 -8.54,-6.98 -14.64,-6.98 -4.02,0 -10.8,6 -10.8,10.8 0,15.99 3.61,14.44 3.61,24.32 -4.13,-0.34 -4.11,-1.46 -7.61,-3.21 -2.91,-1.46 -1.04,-0.38 -3.46,-1.95l-6.82 -3.98c-6.93,-4.73 -12.01,-5.36 -19.54,-1.27 -4.09,2.22 -5.68,8.83 -4.92,13.01 1.95,10.62 7.16,9.96 15.41,15.33l6.14 3.76c1.73,0.97 1.41,1.12 3.24,2.15 0.96,0.54 2.22,0.93 3.14,1.37 -4.22,5.76 -12.47,4.05 -18.35,6.86 -5.93,2.83 -10.46,4.71 -10.46,14.76 0,3.96 -0.14,-0.32 1.05,2.53 2.57,6.11 2.96,8.45 11.02,9.77 6.14,1.01 14.73,-2.26 19.87,-3.78 3.57,-1.05 7.31,-1.08 10.51,-2.12 8.63,-2.82 10.2,-2.06 14.64,-3.36 11.99,-3.5 4.72,-5.36 20.85,3.66 8.99,5.08 50.44,30.28 53.55,31.11 -0.44,5.33 -0.24,20.98 -2.17,23.02 -2.64,2.78 -38.58,22.64 -46.66,27.23 -10.73,5.56 -16.09,12.65 -30.4,6.46l-25.3 -6.22c-4.45,-0.8 -10.17,-5.69 -18.18,-1.17 -5.25,2.96 -6.98,4.97 -6.98,11.93 0,13.36 15.55,17.76 27.02,18.01 -3.48,6.57 -0.84,2.85 -7.17,6.34 -9.14,5.42 -30.89,18.63 -15.69,30.92 9.51,7.7 19.59,0.02 28.06,-5.04 18.63,-11.09 5.61,6.13 5.61,16.41 0,5.3 1.5,7.85 4.56,10.76 6.85,6.5 19.42,4.56 22.74,-5.08 3.16,-9.15 7.95,-29.98 10.07,-34.96 1.85,-4.34 4.54,-11.14 10.99,-15.01 25.18,-15.15 53.17,-40.06 70.92,-29.08 4.37,2.31 5.51,1.63 5.91,7.61 1.01,15.33 2.3,47.02 0.49,61.8 -0.62,5.01 1.41,6.5 -1.54,11.01 -12.24,13.09 -45.21,36.48 -32.59,52.7 9.81,12.59 23.4,-1.87 30.41,-9.85 1.89,-1.48 -0.65,-0.95 3.23,-1.27 0,6.21 1.79,30.03 4.09,32.83 4.4,5.3 14.7,6.57 19.9,1.98 10.64,-9.41 1.66,-39.71 8.59,-34.31 7.87,6.13 9.73,14.8 21.44,14.8 4.76,0 7.44,-0.99 10.24,-4.17 13.7,-15.55 -19.8,-39.32 -28.6,-48.61 -2.9,-2.95 -5.47,-4.37 -6.41,-8.97 -1.89,-9.21 -0.39,-49.53 -0.44,-60.73 -0.05,-12.93 10.99,-23.7 20.51,-21.55 7.36,1.67 41.93,23.41 50.87,28.52 1.79,1.18 -0.11,0.13 1.63,1.08 10.91,5.95 12.18,3.87 13.34,11.88 0.91,6.31 8.83,32.03 11.28,39.16 2.02,9.55 11.19,15.96 20.28,11.09l1.17 -0.63c13.18,-7.33 2.5,-22.15 2.5,-33.53 2.51,0.67 3.29,1.67 6.06,2.95 11.4,5.24 18.9,15.19 30.31,8.2 6.51,-3.98 8.33,-15.92 2.07,-21.66l-25.82 -15.61c12.25,-1.02 34.4,-7.27 29.21,-23.77 -1.16,-3.68 -1.09,-3.31 -3.38,-5.64 -7.05,-7.17 -21.3,-0.88 -25.43,0.09 -10.8,2.53 -33.02,11.6 -41.69,5.79 -15.96,-10.7 -58.67,-20.91 -58.67,-44.91 0,-11.43 -4.34,-10.43 10.57,-18.25 1.18,-0.62 1.34,-0.53 2.45,-1.15l46.12 -26.84c1.62,-1.12 1.5,-2.39 3.91,-2.39 11.15,0 50.84,13.4 56.79,10.89 1.04,-0.44 5.6,-3.62 6.44,-4.41 3.74,-3.56 4.7,-16.66 -3.87,-21.69l-21.53 -5.5c5.48,-7.48 27.92,-13.37 27.92,-23.42 0,-6.17 0.63,-9.68 -4.46,-13.55 -15.83,-12.02 -34.8,14.95 -37.44,9.55 -2.19,-4.51 4.08,-15.61 4.08,-20.31 0,-9.94 -10.89,-18.95 -20.05,-13.74 -5.54,3.16 -6.13,3.81 -7.87,10.14 -4.08,14.83 -9.1,30.18 -13.29,45.25 -1.49,2.8 -3.02,3.95 -6.09,5.61l-52.03 29.93c-2.98,1.93 -4.77,1.8 -7.85,3.86 -3.56,-2.39 -17.66,-10.88 -18.41,-13.1 -4.5,-13.16 -5.16,-69.69 8.06,-82.81 8.44,-8.54 34.86,-28.89 27.66,-42.96 -12.13,-15.31 -20.82,-3.55 -31.36,6.89 -6.32,6.26 -5.75,-1.96 -5.75,-6.71l0 -18.01z"/>
   <path class="fil1" d="M10447.02 7720.45c-0.25,-3.51 -0.78,-4.96 -3.03,-6.88 -0.45,-0.38 -2.65,-2.09 -3.04,-2.37 -1.46,-1.05 -0.59,-1.56 -2.93,-1.56 -6.56,0 -11.8,-0.89 -16.21,5.4 -5.57,7.92 -1.59,24.66 -3.6,33.32 -3.78,-2.52 -7.01,-6.3 -10.13,-9.68 -13.1,-14.18 -26.8,-4.37 -26.8,3.37 0,10.21 0.92,11.04 7.87,18.26l22.31 22.72c2.04,2.06 5.49,3.88 6.92,6.59 1.56,2.97 1.63,66.9 1.63,76.72 -7.02,1.63 -12.25,6.95 -18.01,10.8 -5.49,-2.63 -64.51,-36.67 -67.55,-36.92 0,-2.86 -11.63,-46.59 -14.19,-50.66 -3.12,-4.98 -8.54,-6.98 -14.64,-6.98 -4.02,0 -10.8,6 -10.8,10.8 0,15.99 3.61,14.44 3.61,24.32 -4.13,-0.34 -4.11,-1.46 -7.61,-3.21 -2.91,-1.46 -1.04,-0.38 -3.46,-1.95l-6.82 -3.98c-6.93,-4.73 -12.01,-5.36 -19.54,-1.27 -4.09,2.22 -5.68,8.83 -4.92,13.01 1.95,10.62 7.16,9.96 15.41,15.33l6.14 3.76c1.73,0.97 1.41,1.12 3.24,2.15 0.96,0.54 2.22,0.93 3.14,1.37 -4.22,5.76 -12.47,4.05 -18.35,6.86 -5.93,2.83 -10.46,4.71 -10.46,14.76 0,3.96 -0.14,-0.32 1.05,2.53 2.57,6.11 2.96,8.45 11.02,9.77 6.14,1.01 14.73,-2.26 19.87,-3.78 3.57,-1.05 7.31,-1.08 10.51,-2.12 8.63,-2.82 10.2,-2.06 14.64,-3.36 11.99,-3.5 4.72,-5.36 20.85,3.66 8.99,5.08 50.44,30.28 53.55,31.11 -0.44,5.33 -0.24,20.98 -2.17,23.02 -2.64,2.78 -38.58,22.64 -46.66,27.23 -10.73,5.56 -16.09,12.65 -30.4,6.46l-25.3 -6.22c-4.45,-0.8 -10.17,-5.69 -18.18,-1.17 -5.25,2.96 -6.98,4.97 -6.98,11.93 0,13.36 15.55,17.76 27.02,18.01 -3.48,6.57 -0.84,2.85 -7.17,6.34 -9.14,5.42 -30.89,18.63 -15.69,30.92 9.51,7.7 19.59,0.02 28.06,-5.04 18.63,-11.09 5.61,6.13 5.61,16.41 0,5.3 1.5,7.85 4.56,10.76 6.85,6.5 19.42,4.56 22.74,-5.08 3.16,-9.15 7.95,-29.98 10.07,-34.96 1.85,-4.34 4.54,-11.14 10.99,-15.01 25.18,-15.15 53.17,-40.06 70.92,-29.08 4.37,2.31 5.51,1.63 5.91,7.61 1.01,15.33 2.3,47.02 0.49,61.8 -0.62,5.01 1.41,6.5 -1.54,11.01 -12.24,13.09 -45.21,36.48 -32.59,52.7 9.81,12.59 23.4,-1.87 30.41,-9.85 1.89,-1.48 -0.65,-0.95 3.23,-1.27 0,6.21 1.79,30.03 4.09,32.83 4.4,5.3 14.7,6.57 19.9,1.98 10.64,-9.41 1.66,-39.71 8.59,-34.31 7.87,6.13 9.73,14.8 21.44,14.8 4.76,0 7.44,-0.99 10.24,-4.17 13.7,-15.55 -19.8,-39.32 -28.6,-48.61 -2.9,-2.95 -5.47,-4.37 -6.41,-8.97 -1.89,-9.21 -0.39,-49.53 -0.44,-60.73 -0.05,-12.93 10.99,-23.7 20.51,-21.55 7.36,1.67 41.93,23.41 50.87,28.52 1.79,1.18 -0.11,0.13 1.63,1.08 10.91,5.95 12.18,3.87 13.34,11.88 0.91,6.31 8.83,32.03 11.28,39.16 2.02,9.55 11.19,15.96 20.28,11.09l1.17 -0.63c13.18,-7.33 2.5,-22.15 2.5,-33.53 2.51,0.67 3.29,1.67 6.06,2.95 11.4,5.24 18.9,15.19 30.31,8.2 6.51,-3.98 8.33,-15.92 2.07,-21.66l-25.82 -15.61c12.25,-1.02 34.4,-7.27 29.21,-23.77 -1.16,-3.68 -1.09,-3.31 -3.38,-5.64 -7.05,-7.17 -21.3,-0.88 -25.43,0.09 -10.8,2.53 -33.02,11.6 -41.69,5.79 -15.96,-10.7 -58.67,-20.91 -58.67,-44.91 0,-11.43 -4.34,-10.43 10.57,-18.25 1.18,-0.62 1.34,-0.53 2.45,-1.15l46.12 -26.84c1.62,-1.12 1.5,-2.39 3.91,-2.39 11.15,0 50.84,13.4 56.79,10.89 1.04,-0.44 5.6,-3.62 6.44,-4.41 3.74,-3.56 4.7,-16.66 -3.87,-21.69l-21.53 -5.5c5.48,-7.48 27.92,-13.37 27.92,-23.42 0,-6.17 0.63,-9.68 -4.46,-13.55 -15.83,-12.02 -34.8,14.95 -37.44,9.55 -2.19,-4.51 4.08,-15.61 4.08,-20.31 0,-9.94 -10.89,-18.95 -20.05,-13.74 -5.54,3.16 -6.13,3.81 -7.87,10.14 -4.08,14.83 -9.1,30.18 -13.29,45.25 -1.49,2.8 -3.02,3.95 -6.09,5.61l-52.03 29.93c-2.98,1.93 -4.77,1.8 -7.85,3.86 -3.56,-2.39 -17.66,-10.88 -18.41,-13.1 -4.5,-13.16 -5.16,-69.69 8.06,-82.81 8.44,-8.54 34.86,-28.89 27.66,-42.96 -12.13,-15.31 -20.82,-3.55 -31.36,6.89 -6.32,6.26 -5.75,-1.96 -5.75,-6.71l0 -18.01z"/>
   <path class="fil1" d="M10897.51 8221.96c-0.25,-3.51 -0.78,-4.96 -3.03,-6.88 -0.45,-0.38 -2.65,-2.09 -3.04,-2.37 -1.46,-1.05 -0.59,-1.56 -2.93,-1.56 -6.56,0 -11.8,-0.89 -16.21,5.4 -5.57,7.92 -1.59,24.66 -3.6,33.32 -3.78,-2.52 -7.01,-6.3 -10.13,-9.68 -13.1,-14.18 -26.8,-4.37 -26.8,3.37 0,10.21 0.92,11.04 7.87,18.26l22.31 22.72c2.04,2.06 5.49,3.88 6.92,6.59 1.56,2.97 1.63,66.9 1.63,76.72 -7.02,1.63 -12.25,6.95 -18.01,10.8 -5.49,-2.63 -64.51,-36.67 -67.55,-36.92 0,-2.86 -11.63,-46.59 -14.19,-50.66 -3.12,-4.98 -8.54,-6.98 -14.64,-6.98 -4.02,0 -10.8,6 -10.8,10.8 0,15.99 3.61,14.44 3.61,24.32 -4.13,-0.34 -4.11,-1.46 -7.61,-3.21 -2.91,-1.46 -1.04,-0.38 -3.46,-1.95l-6.82 -3.98c-6.93,-4.73 -12.01,-5.36 -19.54,-1.27 -4.09,2.22 -5.68,8.83 -4.92,13.01 1.95,10.62 7.16,9.96 15.41,15.33l6.14 3.76c1.73,0.97 1.41,1.12 3.24,2.15 0.96,0.54 2.22,0.93 3.14,1.37 -4.22,5.76 -12.47,4.05 -18.35,6.86 -5.93,2.83 -10.46,4.71 -10.46,14.76 0,3.96 -0.14,-0.32 1.05,2.53 2.57,6.11 2.96,8.45 11.02,9.77 6.14,1.01 14.73,-2.26 19.87,-3.78 3.57,-1.05 7.31,-1.08 10.51,-2.12 8.63,-2.82 10.2,-2.06 14.64,-3.36 11.99,-3.5 4.72,-5.36 20.85,3.66 8.99,5.08 50.44,30.28 53.55,31.11 -0.44,5.33 -0.24,20.98 -2.17,23.02 -2.64,2.78 -38.58,22.64 -46.66,27.23 -10.73,5.56 -16.09,12.65 -30.4,6.46l-25.3 -6.22c-4.45,-0.8 -10.17,-5.69 -18.18,-1.17 -5.25,2.96 -6.98,4.97 -6.98,11.93 0,13.36 15.55,17.76 27.02,18.01 -3.48,6.57 -0.84,2.85 -7.17,6.34 -9.14,5.42 -30.89,18.63 -15.69,30.92 9.51,7.7 19.59,0.02 28.06,-5.04 18.63,-11.09 5.61,6.13 5.61,16.41 0,5.3 1.5,7.85 4.56,10.76 6.85,6.5 19.42,4.56 22.74,-5.08 3.16,-9.15 7.95,-29.98 10.07,-34.96 1.85,-4.34 4.54,-11.14 10.99,-15.01 25.18,-15.15 53.17,-40.06 70.92,-29.08 4.37,2.31 5.51,1.63 5.91,7.61 1.01,15.33 2.3,47.02 0.49,61.8 -0.62,5.01 1.41,6.5 -1.54,11.01 -12.24,13.09 -45.21,36.48 -32.59,52.7 9.81,12.59 23.4,-1.87 30.41,-9.85 1.89,-1.48 -0.65,-0.95 3.23,-1.27 0,6.21 1.79,30.03 4.09,32.83 4.4,5.3 14.7,6.57 19.9,1.98 10.64,-9.41 1.66,-39.71 8.59,-34.31 7.87,6.13 9.73,14.8 21.44,14.8 4.76,0 7.44,-0.99 10.24,-4.17 13.7,-15.55 -19.8,-39.32 -28.6,-48.61 -2.9,-2.95 -5.47,-4.37 -6.41,-8.97 -1.89,-9.21 -0.39,-49.53 -0.44,-60.73 -0.05,-12.93 10.99,-23.7 20.51,-21.55 7.36,1.67 41.93,23.41 50.87,28.52 1.79,1.18 -0.11,0.13 1.63,1.08 10.91,5.95 12.18,3.87 13.34,11.88 0.91,6.31 8.83,32.03 11.28,39.16 2.02,9.55 11.19,15.96 20.28,11.09l1.17 -0.63c13.18,-7.33 2.5,-22.15 2.5,-33.53 2.51,0.67 3.29,1.67 6.06,2.95 11.4,5.24 18.9,15.19 30.31,8.2 6.51,-3.98 8.33,-15.92 2.07,-21.66l-25.82 -15.61c12.25,-1.02 34.4,-7.27 29.21,-23.77 -1.16,-3.68 -1.09,-3.31 -3.38,-5.64 -7.05,-7.17 -21.3,-0.88 -25.43,0.09 -10.8,2.53 -33.02,11.6 -41.69,5.79 -15.96,-10.7 -58.67,-20.91 -58.67,-44.91 0,-11.43 -4.34,-10.43 10.57,-18.25 1.18,-0.62 1.34,-0.53 2.45,-1.15l46.12 -26.84c1.62,-1.12 1.5,-2.39 3.91,-2.39 11.15,0 50.84,13.4 56.79,10.89 1.04,-0.44 5.6,-3.62 6.44,-4.41 3.74,-3.56 4.7,-16.66 -3.87,-21.69l-21.53 -5.5c5.48,-7.48 27.92,-13.37 27.92,-23.42 0,-6.17 0.63,-9.68 -4.46,-13.55 -15.83,-12.02 -34.8,14.95 -37.44,9.55 -2.19,-4.51 4.08,-15.61 4.08,-20.31 0,-9.94 -10.89,-18.95 -20.05,-13.74 -5.54,3.16 -6.13,3.81 -7.87,10.14 -4.08,14.83 -9.1,30.18 -13.29,45.25 -1.49,2.8 -3.02,3.95 -6.09,5.61l-52.03 29.93c-2.98,1.93 -4.77,1.8 -7.85,3.86 -3.56,-2.39 -17.66,-10.88 -18.41,-13.1 -4.5,-13.16 -5.16,-69.69 8.06,-82.81 8.44,-8.54 34.86,-28.89 27.66,-42.96 -12.13,-15.31 -20.82,-3.55 -31.36,6.89 -6.32,6.26 -5.75,-1.96 -5.75,-6.71l0 -18.01z"/>
   <path class="fil1" d="M9996.53 8221.96c-0.25,-3.51 -0.78,-4.96 -3.03,-6.88 -0.45,-0.38 -2.65,-2.09 -3.04,-2.37 -1.46,-1.05 -0.59,-1.56 -2.93,-1.56 -6.56,0 -11.8,-0.89 -16.21,5.4 -5.57,7.92 -1.59,24.66 -3.6,33.32 -3.78,-2.52 -7.01,-6.3 -10.13,-9.68 -13.1,-14.18 -26.8,-4.37 -26.8,3.37 0,10.21 0.92,11.04 7.87,18.26l22.31 22.72c2.04,2.06 5.49,3.88 6.92,6.59 1.56,2.97 1.63,66.9 1.63,76.72 -7.02,1.63 -12.25,6.95 -18.01,10.8 -5.49,-2.63 -64.51,-36.67 -67.55,-36.92 0,-2.86 -11.63,-46.59 -14.19,-50.66 -3.12,-4.98 -8.54,-6.98 -14.64,-6.98 -4.02,0 -10.8,6 -10.8,10.8 0,15.99 3.61,14.44 3.61,24.32 -4.13,-0.34 -4.11,-1.46 -7.61,-3.21 -2.91,-1.46 -1.04,-0.38 -3.46,-1.95l-6.82 -3.98c-6.93,-4.73 -12.01,-5.36 -19.54,-1.27 -4.09,2.22 -5.68,8.83 -4.92,13.01 1.95,10.62 7.16,9.96 15.41,15.33l6.14 3.76c1.73,0.97 1.41,1.12 3.24,2.15 0.96,0.54 2.22,0.93 3.14,1.37 -4.22,5.76 -12.47,4.05 -18.35,6.86 -5.93,2.83 -10.46,4.71 -10.46,14.76 0,3.96 -0.14,-0.32 1.05,2.53 2.57,6.11 2.96,8.45 11.02,9.77 6.14,1.01 14.73,-2.26 19.87,-3.78 3.57,-1.05 7.31,-1.08 10.51,-2.12 8.63,-2.82 10.2,-2.06 14.64,-3.36 11.99,-3.5 4.72,-5.36 20.85,3.66 8.99,5.08 50.44,30.28 53.55,31.11 -0.44,5.33 -0.24,20.98 -2.17,23.02 -2.64,2.78 -38.58,22.64 -46.66,27.23 -10.73,5.56 -16.09,12.65 -30.4,6.46l-25.3 -6.22c-4.45,-0.8 -10.17,-5.69 -18.18,-1.17 -5.25,2.96 -6.98,4.97 -6.98,11.93 0,13.36 15.55,17.76 27.02,18.01 -3.48,6.57 -0.84,2.85 -7.17,6.34 -9.14,5.42 -30.89,18.63 -15.69,30.92 9.51,7.7 19.59,0.02 28.06,-5.04 18.63,-11.09 5.61,6.13 5.61,16.41 0,5.3 1.5,7.85 4.56,10.76 6.85,6.5 19.42,4.56 22.74,-5.08 3.16,-9.15 7.95,-29.98 10.07,-34.96 1.85,-4.34 4.54,-11.14 10.99,-15.01 25.18,-15.15 53.17,-40.06 70.92,-29.08 4.37,2.31 5.51,1.63 5.91,7.61 1.01,15.33 2.3,47.02 0.49,61.8 -0.62,5.01 1.41,6.5 -1.54,11.01 -12.24,13.09 -45.21,36.48 -32.59,52.7 9.81,12.59 23.4,-1.87 30.41,-9.85 1.89,-1.48 -0.65,-0.95 3.23,-1.27 0,6.21 1.79,30.03 4.09,32.83 4.4,5.3 14.7,6.57 19.9,1.98 10.64,-9.41 1.66,-39.71 8.59,-34.31 7.87,6.13 9.73,14.8 21.44,14.8 4.76,0 7.44,-0.99 10.24,-4.17 13.7,-15.55 -19.8,-39.32 -28.6,-48.61 -2.9,-2.95 -5.47,-4.37 -6.41,-8.97 -1.89,-9.21 -0.39,-49.53 -0.44,-60.73 -0.05,-12.93 10.99,-23.7 20.51,-21.55 7.36,1.67 41.93,23.41 50.87,28.52 1.79,1.18 -0.11,0.13 1.63,1.08 10.91,5.95 12.18,3.87 13.34,11.88 0.91,6.31 8.83,32.03 11.28,39.16 2.02,9.55 11.19,15.96 20.28,11.09l1.17 -0.63c13.18,-7.33 2.5,-22.15 2.5,-33.53 2.51,0.67 3.29,1.67 6.06,2.95 11.4,5.24 18.9,15.19 30.31,8.2 6.51,-3.98 8.33,-15.92 2.07,-21.66l-25.82 -15.61c12.25,-1.02 34.4,-7.27 29.21,-23.77 -1.16,-3.68 -1.09,-3.31 -3.38,-5.64 -7.05,-7.17 -21.3,-0.88 -25.43,0.09 -10.8,2.53 -33.02,11.6 -41.69,5.79 -15.96,-10.7 -58.67,-20.91 -58.67,-44.91 0,-11.43 -4.34,-10.43 10.57,-18.25 1.18,-0.62 1.34,-0.53 2.45,-1.15l46.12 -26.84c1.62,-1.12 1.5,-2.39 3.91,-2.39 11.15,0 50.84,13.4 56.79,10.89 1.04,-0.44 5.6,-3.62 6.44,-4.41 3.74,-3.56 4.7,-16.66 -3.87,-21.69l-21.53 -5.5c5.48,-7.48 27.92,-13.37 27.92,-23.42 0,-6.17 0.63,-9.68 -4.46,-13.55 -15.83,-12.02 -34.8,14.95 -37.44,9.55 -2.19,-4.51 4.08,-15.61 4.08,-20.31 0,-9.94 -10.89,-18.95 -20.05,-13.74 -5.54,3.16 -6.13,3.81 -7.87,10.14 -4.08,14.83 -9.1,30.18 -13.29,45.25 -1.49,2.8 -3.02,3.95 -6.09,5.61l-52.03 29.93c-2.98,1.93 -4.77,1.8 -7.85,3.86 -3.56,-2.39 -17.66,-10.88 -18.41,-13.1 -4.5,-13.16 -5.16,-69.69 8.06,-82.81 8.44,-8.54 34.86,-28.89 27.66,-42.96 -12.13,-15.31 -20.82,-3.55 -31.36,6.89 -6.32,6.26 -5.75,-1.96 -5.75,-6.71l0 -18.01z"/>
  </g>
  <path class="fil2" d="M12707.53 6837.65c395.71,-212.59 785.85,-114.26 1175.98,-15.87 397.02,100.13 794.05,200.24 1184.09,-57.42l0 126.79c-407.42,237.39 -808.82,136.23 -1210.18,34.99 -385.41,-97.19 -770.84,-194.33 -1149.89,35.81l0 -124.3zm216.78 325.16c395.69,-212.59 785.84,-114.27 1175.97,-15.87 397.03,100.13 794.05,200.24 1184.1,-57.43l0 126.79c-407.43,237.4 -808.82,136.23 -1210.18,35.01 -385.42,-97.2 -770.84,-194.34 -1149.89,35.81l0 -124.3zm2144.61 434.07c-407.42,237.4 -808.82,136.2 -1210.18,34.98 -385.42,-97.22 -770.84,-194.37 -1149.89,35.76l0 -124.26c395.72,-212.59 785.85,-114.27 1175.98,-15.88 397.01,100.14 794.05,200.22 1184.09,-57.44l0 126.84z"/>
  <path class="fil3" d="M2387.29 4513.83c109.35,39.19 223.66,49.3 337.38,33.92 119.54,-16.18 238.8,-60.42 351.45,-128.64l41.05 -24.88 31.35 36.41c32.16,37.34 68.35,70.34 108.31,98.16 38.51,26.8 80.64,48.73 126.12,65.05 94.54,33.88 194.08,39.7 292.56,21.35 104.29,-19.44 207.55,-65.77 302.86,-134.54l40.21 -29.01 34.13 35.81c20.76,21.77 43.71,41.1 68.76,57.55 23.67,15.54 49.68,28.56 77.97,38.7 124.73,44.71 262.8,18.09 385.15,-61.08 57.81,-37.41 112.06,-86.41 159.9,-145.16l0 164.8c-31.34,28.4 -64.21,53.74 -98.16,75.71 -151.68,98.14 -325.44,130.2 -485.31,72.9 -35.88,-12.86 -69.92,-30.05 -101.89,-51.05 -18.58,-12.2 -36.32,-25.69 -53.16,-40.35 -98.21,64.07 -203.23,107.77 -309.61,127.61 -117.99,22 -237.65,14.85 -351.83,-26.06 -54.71,-19.62 -105.62,-46.18 -152.37,-78.73 -34.93,-24.31 -67.51,-52.02 -97.63,-82.73 -114.03,63.06 -234.03,104.41 -354.93,120.77 -131.62,17.81 -264.01,6.08 -390.7,-39.34 -95.17,-34.11 -180.65,-84.8 -255.47,-148.97l0 -159.5c80.48,90.66 179.2,160.19 293.89,201.28zm341.59 419.93c109.35,39.19 223.65,49.31 337.36,33.93 119.55,-16.18 238.81,-60.44 351.45,-128.64l41.05 -24.88 31.35 36.4c32.16,37.35 68.35,70.35 108.32,98.16 38.51,26.82 80.63,48.74 126.12,65.05 94.53,33.88 194.07,39.71 292.55,21.36 104.29,-19.44 207.55,-65.77 302.87,-134.54l40.2 -29.01 34.14 35.81c20.76,21.76 43.71,41.1 68.76,57.54 23.67,15.54 49.67,28.57 77.96,38.71 124.74,44.71 262.81,18.08 385.15,-61.09 57.81,-37.41 112.06,-86.41 159.9,-145.14l0 164.8c-31.34,28.39 -64.2,53.74 -98.16,75.71 -151.68,98.13 -325.44,130.19 -485.3,72.9 -35.89,-12.86 -69.92,-30.05 -101.89,-51.05 -18.6,-12.21 -36.32,-25.69 -53.17,-40.37 -98.21,64.08 -203.21,107.77 -309.6,127.62 -118,21.99 -237.65,14.84 -351.83,-26.06 -54.72,-19.62 -105.62,-46.18 -152.39,-78.73 -34.92,-24.32 -67.5,-52.02 -97.63,-82.73 -114.03,63.06 -234.02,104.41 -354.91,120.75 -131.62,17.81 -264.01,6.09 -390.71,-39.32 -95.17,-34.11 -180.65,-84.8 -255.46,-148.98l0 -159.49c80.47,90.66 179.2,160.17 293.89,201.27z"/>
  <path class="fil0" d="M17705.4 7480.16c-238.93,259.59 -617.06,368.95 -972.63,248.2 -480.83,-163.29 -738.25,-685.45 -574.97,-1166.28 84.31,-248.27 264.3,-436.97 484.89,-538.96 -9.04,21.76 -17.49,43.93 -25.18,66.57 -187.33,551.63 108,1150.69 659.63,1338.03 142.23,48.29 287.6,64.44 428.26,52.45zm-61.04 -697.31l33.99 105.31 110.67 -0.21 -89.65 64.87 34.39 105.18 -89.39 -65.22 -89.41 65.22 34.4 -105.18 -89.65 -64.87 110.66 0.21 34 -105.31zm-591.7 -118.34l33.99 105.31 110.67 -0.21 -89.65 64.87 34.39 105.18 -89.39 -65.22 -89.41 65.22 34.4 -105.18 -89.65 -64.87 110.66 0.21 34 -105.31zm118.34 -591.7l33.99 105.31 110.67 -0.21 -89.65 64.87 34.39 105.18 -89.39 -65.22 -89.41 65.22 34.4 -105.18 -89.65 -64.87 110.66 0.21 34 -105.31z"/>
  <rect class="fil4" width="20289.46" height="9493.47"/>
 </g>
</svg>
