<?xml version="1.0" standalone="no"?>
<!DOCTYPE svg PUBLIC "-//W3C//DTD SVG 20010904//EN"
 "http://www.w3.org/TR/2001/REC-SVG-20010904/DTD/svg10.dtd">
<svg version="1.0" xmlns="http://www.w3.org/2000/svg"
 width="1280.000000pt" height="640.000000pt" viewBox="0 0 1280.000000 640.000000"
 preserveAspectRatio="xMidYMid meet">
<metadata>
Created by potrace 1.15, written by Peter Selinger 2001-2017
</metadata>
<g transform="translate(0.000000,640.000000) scale(0.100000,-0.100000)"
fill="#000000" stroke="none">
<path d="M7935 4105 c-38 -13 -196 -64 -350 -113 -154 -50 -478 -154 -720
-232 -242 -78 -564 -181 -715 -230 -253 -81 -1191 -383 -2065 -664 -198 -64
-363 -116 -368 -116 -4 0 -25 13 -48 29 -95 69 -239 58 -323 -26 -16 -15 -35
-38 -43 -50 l-15 -23 -1584 0 -1584 0 0 -115 0 -115 1583 0 1583 0 30 -42 c18
-26 52 -55 85 -73 71 -38 171 -42 236 -7 60 31 110 87 132 146 l19 51 113 37
c63 20 240 77 394 126 154 50 604 195 1000 322 396 127 844 271 995 320 251
81 696 224 1435 462 154 49 302 97 328 105 29 8 47 19 44 26 -2 7 -19 56 -36
110 -18 53 -38 97 -44 96 -7 -1 -43 -11 -82 -24z"/>
<path d="M8089 2775 c-82 -16 -141 -61 -182 -140 -31 -60 -30 -165 3 -229 59
-116 196 -173 313 -132 54 20 108 60 136 101 l24 35 2148 0 2149 0 0 115 0
115 -2155 0 c-1378 0 -2155 3 -2155 10 0 18 -63 81 -102 101 -57 29 -115 37
-179 24z"/>
</g>
</svg>
